<svg xmlns="http://www.w3.org/2000/svg" xmlns:xlink="http://www.w3.org/1999/xlink" viewBox="0 0 1472.72 653.79"><defs><style>      .cls-1 {        fill: url(#linear-gradient-13);      }      .cls-2 {        fill: url(#linear-gradient-2);      }      .cls-3 {        fill: url(#linear-gradient-10);      }      .cls-4 {        fill: url(#linear-gradient-12);      }      .cls-5 {        fill: url(#linear-gradient-5);        mix-blend-mode: screen;      }      .cls-5, .cls-6 {        opacity: .7;      }      .cls-6 {        fill: url(#linear-gradient-4);        mix-blend-mode: multiply;      }      .cls-7 {        fill: #f4782a;      }      .cls-8 {        fill: #d36e28;      }      .cls-9 {        fill: url(#linear-gradient-3);      }      .cls-10 {        fill: #972c6f;      }      .cls-11 {        isolation: isolate;      }      .cls-12 {        fill: url(#linear-gradient-8);      }      .cls-13 {        fill: #4187bb;      }      .cls-14 {        fill: url(#linear-gradient-14);      }      .cls-15 {        fill: url(#linear-gradient-7);      }      .cls-16 {        fill: url(#linear-gradient-9);      }      .cls-17 {        fill: url(#linear-gradient-11);      }      .cls-18 {        fill: url(#linear-gradient-6);      }      .cls-19 {        fill: #4589bc;      }      .cls-20 {        fill: url(#linear-gradient);      }      .cls-21 {        fill: #353635;      }      .cls-22 {        fill: #124c78;      }    </style><linearGradient id="linear-gradient" x1="572.78" y1="235" x2="611.41" y2="441.49" gradientTransform="translate(360.56 -330.57) rotate(45)" gradientUnits="userSpaceOnUse"><stop offset="0" stop-color="#fffffa"></stop><stop offset="1" stop-color="#cfcec9"></stop></linearGradient><linearGradient id="linear-gradient-2" x1="573.11" y1="236.46" x2="610.13" y2="434.33" gradientUnits="userSpaceOnUse"><stop offset="0" stop-color="#f7c442"></stop><stop offset="1" stop-color="#eb9f2e"></stop></linearGradient><linearGradient id="linear-gradient-3" x1="441.52" y1="197.09" x2="578.29" y2="314.44" gradientUnits="userSpaceOnUse"><stop offset="0" stop-color="#eb9f2e"></stop><stop offset="1" stop-color="#f7c442"></stop></linearGradient><linearGradient id="linear-gradient-4" x1="650.71" y1="195.32" x2="468.13" y2="386.2" gradientTransform="translate(360.56 -330.57) rotate(45)" gradientUnits="userSpaceOnUse"><stop offset="0" stop-color="#fffffa" stop-opacity="0"></stop><stop offset="1" stop-color="#9a73b2"></stop></linearGradient><linearGradient id="linear-gradient-5" x1="625.39" y1="183.38" x2="654.33" y2="260.03" gradientUnits="userSpaceOnUse"><stop offset="0" stop-color="#fffffa" stop-opacity="0"></stop><stop offset="1" stop-color="#f47927"></stop></linearGradient><linearGradient id="linear-gradient-6" x1="418.29" y1="198.2" x2="613.67" y2="198.2" gradientUnits="userSpaceOnUse"><stop offset="0" stop-color="#abdcf3"></stop><stop offset="1" stop-color="#4187bb"></stop></linearGradient><linearGradient id="linear-gradient-7" y1="339.85" y2="339.85" xlink:href="#linear-gradient-6"></linearGradient><linearGradient id="linear-gradient-8" x1="390.73" y1="269.02" x2="634.67" y2="269.02" xlink:href="#linear-gradient-6"></linearGradient><linearGradient id="linear-gradient-9" x1="374.58" y1="233.61" x2="569.97" y2="233.61" gradientUnits="userSpaceOnUse"><stop offset="0" stop-color="#ffc617"></stop><stop offset="1" stop-color="#f47927"></stop></linearGradient><linearGradient id="linear-gradient-10" x1="374.59" y1="304.43" x2="505.66" y2="304.43" xlink:href="#linear-gradient-9"></linearGradient><linearGradient id="linear-gradient-11" x1="118.18" y1="268.39" x2="392.9" y2="268.39" xlink:href="#linear-gradient-2"></linearGradient><linearGradient id="linear-gradient-12" x1="378.26" y1="373.22" x2="462.8" y2="373.22" xlink:href="#linear-gradient-2"></linearGradient><linearGradient id="linear-gradient-13" x1="94.38" y1="151.96" x2="178.93" y2="151.96" xlink:href="#linear-gradient-2"></linearGradient><linearGradient id="linear-gradient-14" x1="746.55" y1="153.31" x2="816" y2="153.31" gradientTransform="translate(627.97 934.59) rotate(-90)" xlink:href="#linear-gradient-2"></linearGradient></defs><g class="cls-11"><g id="Layer_1" data-name="Layer 1"><g><g><path class="cls-13" d="M431.48,178.62s.3-11.68,47.95-8.5v8.95s-47.8-5.35-47.95,10.3v-10.76Z"></path><path class="cls-13" d="M431.48,320.26s.3-11.68,47.95-8.5v8.95s-47.8-5.35-47.95,10.3v-10.76Z"></path><path class="cls-13" d="M407.2,249.43s.3-11.68,47.95-8.5v8.95s-47.8-5.35-47.95,10.3v-10.76Z"></path><circle class="cls-20" cx="579.32" cy="269.95" r="150.87" transform="translate(-21.21 488.71) rotate(-45)"></circle><path class="cls-2" d="M678.46,327.52c-2.78,9.55-11.59,16.55-22.02,16.55-12.65,0-22.95-10.29-22.95-22.95s10.29-22.95,22.95-22.95c10.43,0,19.24,7,22.02,16.55h38.4c4.05-12.44,6.45-25.62,6.96-39.29h-4.28c-2.78,9.55-11.59,16.55-22.02,16.55-12.65,0-22.95-10.29-22.95-22.95s10.29-22.95,22.95-22.95c10.43,0,19.24,7,22.02,16.55h4.23c-.68-13.57-3.26-26.62-7.43-38.95h-37.88c-2.78,9.55-11.59,16.55-22.02,16.55-12.65,0-22.95-10.29-22.95-22.95s10.29-22.95,22.95-22.95c10.43,0,19.24,7,22.02,16.55h32.87c-22.59-50.38-73.15-85.49-131.94-85.49-79.84,0-144.57,64.73-144.57,144.57s64.73,144.57,144.57,144.57c59.38,0,110.37-35.81,132.62-87h-33.55Z"></path><path class="cls-8" d="M387.78,214s.76-8.37,47.95-8.37v8.37c-23.07,0-47.97,3.32-47.95,10.76v-10.76Z"></path><polygon class="cls-8" points="453.94 214 435.73 214 434.82 205.63 453.94 205.63 453.94 214"></polygon><path class="cls-8" d="M387.78,284.86s.76-8.37,47.95-8.37v8.37c-23.07,0-47.97,3.32-47.95,10.76v-10.76Z"></path><polygon class="cls-10" points="453.94 284.86 435.73 284.86 434.82 276.49 453.94 276.49 453.94 284.86"></polygon><path class="cls-9" d="M532.79,133.1c-56.97,19.39-97.98,73.32-97.98,136.85s41,117.46,97.98,136.85c46.08-28.14,76.85-78.9,76.85-136.85s-30.77-108.71-76.85-136.85Z"></path><circle class="cls-6" cx="579.32" cy="269.95" r="136.85" transform="translate(-21.21 488.71) rotate(-45)"></circle><path class="cls-5" d="M579.32,133.1c-13.27,0-26.08,1.91-38.2,5.45,40.75,28.49,67.62,75.46,68.49,128.76,2.79.24,5.6.39,8.44.39,37.64,0,70.32-21.21,86.77-52.32-21.08-48.41-69.33-82.27-125.5-82.27Z"></path><path class="cls-7" d="M646.29,217.28c0,5.6,4.55,10.15,10.15,10.15s10.15-4.55,10.15-10.15-4.55-10.15-10.15-10.15-10.15,4.55-10.15,10.15Z"></path><path class="cls-7" d="M646.29,321.12c0,5.6,4.55,10.15,10.15,10.15s10.15-4.55,10.15-10.15-4.55-10.15-10.15-10.15-10.15,4.55-10.15,10.15Z"></path><path class="cls-19" d="M687.37,269.02c0,5.6,4.55,10.15,10.15,10.15s10.15-4.55,10.15-10.15-4.55-10.15-10.15-10.15-10.15,4.55-10.15,10.15Z"></path><path class="cls-18" d="M603.91,175.25c-10.43,0-19.24,7-22.02,16.55h-118.76c-20.86-.43-31.66-7.21-31.66-13.18v13.18s-.53,11.22,29.44,12.65v.15h120.98c2.78,9.55,11.59,16.55,22.02,16.55,12.65,0,22.95-10.29,22.95-22.95s-10.29-22.95-22.95-22.95ZM603.91,208.35c-5.6,0-10.15-4.55-10.15-10.15s4.55-10.15,10.15-10.15,10.15,4.55,10.15,10.15-4.55,10.15-10.15,10.15Z"></path><path class="cls-15" d="M603.91,316.9c-10.43,0-19.24,7-22.02,16.55h-118.76c-20.86-.43-31.66-7.21-31.66-13.18v13.18s-.53,11.22,29.44,12.65v.15h120.98c2.78,9.55,11.59,16.55,22.02,16.55,12.65,0,22.95-10.29,22.95-22.95s-10.29-22.95-22.95-22.95ZM603.91,349.99c-5.6,0-10.15-4.55-10.15-10.15s4.55-10.15,10.15-10.15,10.15,4.55,10.15,10.15-4.55,10.15-10.15,10.15Z"></path><path class="cls-12" d="M628.19,246.08c-10.43,0-19.24,7-22.02,16.55h-163.01c-23.67.46-35.96-6.82-35.96-13.19v13.18s-.56,12.11,33.07,12.77v.04h165.91c2.78,9.55,11.59,16.55,22.02,16.55,12.65,0,22.95-10.29,22.95-22.95s-10.29-22.95-22.95-22.95ZM628.19,279.17c-5.6,0-10.15-4.55-10.15-10.15s4.55-10.15,10.15-10.15,10.15,4.55,10.15,10.15-4.55,10.15-10.15,10.15Z"></path><path class="cls-16" d="M560.21,210.67c-10.43,0-19.24,7-22.02,16.55h-113.77c-23.67.47-36.65-6.84-36.65-13.22v13.18s-.92,12.06,32.83,12.76l.02.07h117.56c2.78,9.55,11.59,16.55,22.02,16.55,12.65,0,22.95-10.29,22.95-22.95s-10.29-22.95-22.95-22.95ZM560.21,243.76c-5.6,0-10.15-4.55-10.15-10.15s4.55-10.15,10.15-10.15,10.15,4.55,10.15,10.15-4.55,10.15-10.15,10.15Z"></path><path class="cls-3" d="M560.21,281.49c-10.43,0-19.24,7-22.02,16.55h-119.02c-20.32-.62-31.4-7.29-31.4-13.18v13.18s-.92,12.1,33.02,12.77v.03h2.37c.19,0,.37,0,.57,0h0s114.45,0,114.45,0c2.78,9.55,11.59,16.55,22.02,16.55,12.65,0,22.95-10.29,22.95-22.95s-10.29-22.95-22.95-22.95ZM560.21,314.58c-5.6,0-10.15-4.55-10.15-10.15s4.55-10.15,10.15-10.15,10.15,4.55,10.15,10.15-4.55,10.15-10.15,10.15Z"></path></g><g><g><polygon class="cls-22" points="367.46 336.43 432.59 409.99 118.1 409.99 118.1 336.43 367.46 336.43"></polygon><polygon class="cls-17" points="332.38 126.77 211.83 245.11 201.43 255.31 118.84 336.42 118.18 337.05 118.18 410.01 167.22 410.01 242.18 336.42 254.67 324.17 268.84 310.25 392.9 188.44 332.38 126.77"></polygon><polygon class="cls-4" points="462.8 409.99 443.18 409.99 378.26 336.46 397.92 336.46 462.8 409.99"></polygon><path class="cls-22" d="M189.73,188.76l-65.13-73.56h252.16c8.87,0,16.07,7.19,16.07,16.07v57.5h-203.09Z"></path><polygon class="cls-1" points="94.38 115.19 114 115.19 178.93 188.72 159.26 188.72 94.38 115.19"></polygon></g><path class="cls-22" d="M746.55,403.45v-198.8h56.78c8.43,0,15.28,6.86,15.28,15.28v183.52h-72.07Z"></path><polygon class="cls-22" points="1024.67 403.45 953.64 303.03 925.35 336.68 925.35 403.45 850.96 403.45 850.96 129.58 925.35 129.58 925.35 247.22 1025.03 129.58 1104.36 129.58 1003.14 248.94 1111.53 403.45 1024.67 403.45"></polygon><path class="cls-22" d="M1233.97,409.3c-21.04,0-40.66-3.57-58.32-10.61-17.59-7.01-33.01-17.07-45.85-29.91-12.86-12.85-23-28.2-30.17-45.62-7.17-17.43-10.81-36.74-10.81-57.4s3.63-40.3,10.8-57.59c7.17-17.3,17.32-32.58,30.17-45.43,12.83-12.83,28.26-22.89,45.85-29.91,17.64-7.04,37.13-10.61,57.93-10.61s40.59,3.56,58.11,10.6c17.47,7.02,32.83,17.08,45.67,29.91,12.85,12.86,23,28.15,30.17,45.43,7.17,17.31,10.8,36.69,10.8,57.59s-3.64,39.96-10.8,57.4c-7.16,17.42-17.31,32.77-30.17,45.62-12.83,12.83-28.2,22.9-45.67,29.92-17.53,7.03-36.95,10.6-57.72,10.6ZM1233.59,186c-9.53,0-18.55,1.89-26.81,5.63-8.26,3.72-15.6,9.13-21.8,16.08-6.16,6.9-11.01,15.4-14.41,25.26-3.34,9.69-5.04,20.72-5.04,32.79s1.69,23.11,5.04,32.8c3.4,9.86,8.25,18.35,14.42,25.25,6.2,6.95,13.53,12.36,21.8,16.09,8.26,3.73,17.28,5.62,26.81,5.62s18.53-1.89,26.8-5.61c8.26-3.73,15.59-9.14,21.8-16.1,6.17-6.91,11.02-15.41,14.42-25.25,3.34-9.69,5.03-20.72,5.03-32.8s-1.69-23.1-5.03-32.79c-3.4-9.85-8.25-18.35-14.41-25.26-6.22-6.96-13.56-12.37-21.81-16.09-8.27-3.73-17.28-5.62-26.8-5.62Z"></path><rect class="cls-14" x="757.55" y="118.58" width="47.45" height="69.45" transform="translate(934.59 -627.97) rotate(90)"></rect></g><path class="cls-22" d="M321.67,509.31c5.6-2.47,9.93-6.03,12.97-10.69,3.05-4.65,4.57-10.19,4.57-16.62s-1.53-12.11-4.57-16.8c-3.05-4.7-7.37-8.3-12.97-10.81-5.6-2.51-12.27-3.77-20.01-3.77h-37.43v86.48h20.01v-24.09h17.42c.32,0,.6-.03.92-.04l16.63,24.13h21.62l-19.33-27.73c.06-.02.12-.04.17-.06ZM314.38,493.07c-3.05,2.68-7.66,4.02-13.84,4.02h-16.31v-30.15h16.31c6.18,0,10.79,1.32,13.84,3.95,3.05,2.64,4.57,6.34,4.57,11.12s-1.53,8.38-4.57,11.06ZM187.86,492.95c-.78-.33-1.61-.6-2.44-.87,3.37-1.77,6.1-4.14,8.12-7.16,2.22-3.34,3.34-7.27,3.34-11.8,0-6.75-2.74-12.19-8.22-16.31-5.48-4.12-13.65-6.18-24.52-6.18h-42.25v86.48h44.72c11.37,0,19.97-2.08,25.82-6.24,5.85-4.16,8.77-9.94,8.77-17.36,0-5.02-1.18-9.27-3.52-12.72-2.35-3.46-5.62-6.07-9.82-7.84ZM141.78,465.7h19.89c4.86,0,8.58.85,11.18,2.53,2.59,1.69,3.89,4.22,3.89,7.6s-1.3,6.04-3.89,7.72c-2.59,1.69-6.32,2.53-11.18,2.53h-19.89v-20.39ZM176.92,519.51c-2.68,1.69-6.61,2.53-11.8,2.53h-23.35v-21.37h23.35c5.19,0,9.12.89,11.8,2.66,2.67,1.77,4.02,4.47,4.02,8.09s-1.34,6.4-4.02,8.09ZM755.77,456.01c-7.17-3.58-15.44-5.37-24.83-5.37h-39.29v86.48h39.29c9.39,0,17.67-1.79,24.83-5.37,7.17-3.58,12.77-8.61,16.8-15.07,4.03-6.46,6.05-14.06,6.05-22.8s-2.02-16.43-6.05-22.86c-4.04-6.42-9.64-11.43-16.8-15.01ZM754.84,508.08c-2.35,4.04-5.64,7.15-9.89,9.33-4.24,2.18-9.25,3.27-15.01,3.27h-18.28v-53.62h18.28c5.77,0,10.77,1.09,15.01,3.27,4.24,2.18,7.54,5.27,9.89,9.27,2.35,4,3.52,8.75,3.52,14.27s-1.17,10.17-3.52,14.21ZM1009.45,450.63l-38.55,86.48h20.51l7.71-18.53h40.09l7.68,18.53h21l-38.67-86.48h-19.77ZM1005.44,503.38l13.76-33.1,13.71,33.1h-27.47ZM477.6,461.87c-4.24-4.03-9.23-7.17-14.95-9.39-5.73-2.22-12.01-3.34-18.84-3.34s-13.01,1.11-18.78,3.34c-5.77,2.22-10.79,5.35-15.07,9.39-4.28,4.04-7.6,8.77-9.94,14.21-2.35,5.44-3.52,11.37-3.52,17.79s1.17,12.35,3.52,17.79c2.35,5.44,5.64,10.17,9.88,14.21,4.24,4.04,9.27,7.17,15.07,9.39,5.81,2.22,12.13,3.34,18.96,3.34s12.99-1.11,18.72-3.34c5.72-2.22,10.7-5.33,14.95-9.33,4.24-3.99,7.55-8.73,9.94-14.21,2.39-5.48,3.58-11.43,3.58-17.85s-1.2-12.46-3.58-17.85c-2.39-5.39-5.7-10.11-9.94-14.15ZM468.82,505.11c-1.36,3.38-3.27,6.3-5.74,8.77-2.47,2.47-5.34,4.37-8.59,5.68-3.25,1.32-6.82,1.98-10.69,1.98s-7.45-.66-10.75-1.98c-3.3-1.32-6.16-3.21-8.59-5.68-2.43-2.47-4.32-5.41-5.68-8.83-1.36-3.42-2.04-7.14-2.04-11.18s.68-7.86,2.04-11.24,3.28-6.3,5.75-8.77c2.47-2.47,5.33-4.36,8.59-5.68,3.25-1.32,6.81-1.98,10.68-1.98s7.45.66,10.75,1.98c3.29,1.32,6.16,3.21,8.58,5.68,2.43,2.47,4.33,5.4,5.68,8.77,1.36,3.38,2.04,7.13,2.04,11.24s-.68,7.87-2.04,11.24ZM1352.6,471.02c-4.04-6.42-9.64-11.43-16.8-15.01-7.16-3.58-15.44-5.37-24.83-5.37h-39.29v86.48h39.29c9.39,0,17.67-1.79,24.83-5.37,7.17-3.58,12.77-8.61,16.8-15.07,4.04-6.46,6.05-14.06,6.05-22.8s-2.02-16.43-6.05-22.86ZM1334.87,508.08c-2.35,4.04-5.64,7.15-9.88,9.33-4.24,2.18-9.25,3.27-15.01,3.27h-18.29v-53.62h18.29c5.76,0,10.77,1.09,15.01,3.27,4.24,2.18,7.54,5.27,9.88,9.27,2.35,4,3.52,8.75,3.52,14.27s-1.17,10.17-3.52,14.21ZM1184.03,503.1l-42.99-52.47h-16.56v86.48h19.77v-52.49l43.12,52.49h16.43v-86.48h-19.77v52.47ZM907.11,492.95c-.78-.33-1.61-.6-2.44-.87,3.37-1.77,6.11-4.14,8.12-7.16,2.22-3.34,3.33-7.27,3.33-11.8,0-6.75-2.74-12.19-8.21-16.31-5.48-4.12-13.65-6.18-24.53-6.18h-42.25v86.48h44.73c11.37,0,19.97-2.08,25.82-6.24,5.85-4.16,8.77-9.94,8.77-17.36,0-5.02-1.17-9.27-3.52-12.72-2.35-3.46-5.62-6.07-9.82-7.84ZM861.03,465.7h19.89c4.86,0,8.59.85,11.18,2.53,2.59,1.69,3.89,4.22,3.89,7.6s-1.3,6.04-3.89,7.72c-2.59,1.69-6.32,2.53-11.18,2.53h-19.89v-20.39ZM896.18,519.51c-2.68,1.69-6.61,2.53-11.8,2.53h-23.35v-21.37h23.35c5.19,0,9.12.89,11.8,2.66s4.02,4.47,4.02,8.09-1.34,6.4-4.02,8.09ZM576.62,450.63l-38.54,86.48h20.51l7.71-18.53h40.09l7.68,18.53h21l-38.67-86.48h-19.77ZM572.6,503.38l13.76-33.1,13.71,33.1h-27.47Z"></path><g><polygon class="cls-21" points="1363.2 140.71 1373.68 140.71 1373.68 166.98 1380.28 166.98 1380.28 140.71 1390.75 140.71 1390.75 135.1 1363.2 135.1 1363.2 140.71"></polygon><polygon class="cls-21" points="1434.74 166.98 1434.67 135.1 1429.36 135.1 1416.97 155.55 1404.32 135.1 1399.02 135.1 1399.02 166.98 1405.25 166.98 1405.25 147.27 1415.37 163.44 1418.38 163.44 1428.43 146.86 1428.5 166.98 1434.74 166.98"></polygon></g></g></g></g></svg>